<?xml version="1.0" encoding="UTF-8" standalone="no"?>
<!DOCTYPE svg PUBLIC "-//W3C//DTD SVG 1.1//EN" "http://www.w3.org/Graphics/SVG/1.1/DTD/svg11.dtd">
<svg version="1.1" xmlns="http://www.w3.org/2000/svg" xmlns:xlink="http://www.w3.org/1999/xlink" preserveAspectRatio="xMidYMid meet" viewBox="0 0 640 640" width="640" height="640"><defs><path d="M301.16 576.54C301.77 577.15 302.42 577.74 303.1 578.29C303.41 578.54 303.73 578.76 304.05 579C304.43 579.29 304.8 579.58 305.19 579.84C305.57 580.1 305.97 580.32 306.36 580.55C306.71 580.76 307.06 580.99 307.43 581.18C307.83 581.4 308.24 581.58 308.64 581.77C309.03 581.95 309.4 582.14 309.8 582.3C310.19 582.46 310.59 582.6 310.99 582.74C311.41 582.89 311.83 583.05 312.26 583.18C312.66 583.3 313.07 583.39 313.47 583.49C313.91 583.6 314.34 583.73 314.79 583.82C315.26 583.91 315.73 583.96 316.2 584.03C316.59 584.09 316.97 584.16 317.37 584.2C319.12 584.37 320.88 584.37 322.63 584.2C323.03 584.16 323.41 584.09 323.8 584.03C324.27 583.96 324.74 583.91 325.21 583.82C325.66 583.73 326.09 583.6 326.53 583.49C326.93 583.39 327.34 583.3 327.74 583.18C328.17 583.05 328.59 582.89 329.01 582.74C329.41 582.6 329.81 582.46 330.2 582.3C330.6 582.14 330.97 581.95 331.36 581.77C331.76 581.57 332.17 581.4 332.57 581.18C332.94 580.99 333.29 580.76 333.64 580.55C334.03 580.32 334.43 580.1 334.81 579.84C335.2 579.58 335.57 579.29 335.95 579C336.27 578.76 336.59 578.54 336.9 578.29C337.58 577.74 338.23 577.15 338.84 576.54C338.85 576.53 338.85 576.53 338.86 576.52C357.52 557.86 506.86 408.52 525.52 389.86C535.94 379.44 535.94 362.56 525.52 352.14C515.11 341.73 498.23 341.73 487.81 352.14C478.4 361.55 431.35 408.6 346.67 493.29C346.67 243.91 346.67 105.37 346.67 77.67C346.67 62.94 334.73 51 320 51C305.27 51 293.33 62.94 293.33 77.67C293.33 105.37 293.33 243.91 293.33 493.29C208.65 408.6 161.6 361.55 152.19 352.14C141.78 341.73 124.89 341.73 114.48 352.14C104.06 362.56 104.06 379.44 114.48 389.86C126.92 402.3 189.14 464.52 301.14 576.52C301.15 576.53 301.16 576.53 301.16 576.54Z" id="aqbnDpx0O"></path></defs><g><g><g><use xlink:href="#aqbnDpx0O" opacity="1" fill="#ffffff" fill-opacity="1"></use><g><use xlink:href="#aqbnDpx0O" opacity="1" fill-opacity="0" stroke="#000000" stroke-width="1" stroke-opacity="0"></use></g></g></g></g></svg>